<svg width="2597" height="1404" xmlns="http://www.w3.org/2000/svg" xmlns:xlink="http://www.w3.org/1999/xlink" overflow="hidden"><defs><clipPath id="clip0"><rect x="1247" y="581" width="2597" height="1404"/></clipPath></defs><g clip-path="url(#clip0)" transform="translate(-1247 -581)"><path d="M2454.5 1142.5C2459.89 1142.98 2465.22 1143.61 2470.5 1144.5 2465.22 1143.61 2459.89 1142.98 2454.5 1142.5Z" stroke="#F2F2F2" stroke-width="3.4375" stroke-miterlimit="8" fill="#F2F2F2" fill-rule="evenodd"/><path d="M2454.5 1142.5C2459.89 1142.98 2465.22 1143.61 2470.5 1144.5 2465.22 1143.61 2459.89 1142.98 2454.5 1142.5L2454.5 1142.5Z" stroke="#F2F2F2" stroke-width="3.4375" stroke-miterlimit="8" fill="#F2F2F2" fill-rule="evenodd"/><path d="M2413.5 1140.5C2417.18 1140.88 2420.82 1141.25 2424.5 1141.5 2420.82 1141.25 2417.14 1140.88 2413.5 1140.5Z" stroke="#F2F2F2" stroke-width="3.4375" stroke-miterlimit="8" fill="#F2F2F2" fill-rule="evenodd"/><path d="M2413.5 1140.5C2417.18 1140.88 2420.82 1141.25 2424.5 1141.5 2420.82 1141.25 2417.14 1140.88 2413.5 1140.5L2413.5 1140.5Z" stroke="#F2F2F2" stroke-width="3.4375" stroke-miterlimit="8" fill="#F2F2F2" fill-rule="evenodd"/><path d="M2470.5 1144.5C2473.51 1145.05 2476.52 1145.71 2479.5 1146.5 2476.52 1145.71 2473.54 1145.05 2470.5 1144.5Z" stroke="#F2F2F2" stroke-width="3.4375" stroke-miterlimit="8" fill="#F2F2F2" fill-rule="evenodd"/><path d="M2470.5 1144.5C2473.51 1145.05 2476.52 1145.71 2479.5 1146.5 2476.52 1145.71 2473.54 1145.05 2470.5 1144.5L2470.5 1144.5Z" stroke="#F2F2F2" stroke-width="3.4375" stroke-miterlimit="8" fill="#F2F2F2" fill-rule="evenodd"/><path d="M2429.5 1140.5C2432.84 1140.83 2436.19 1141.06 2439.5 1141.5 2436.19 1141.06 2432.84 1140.72 2429.5 1140.5Z" stroke="#F2F2F2" stroke-width="3.4375" stroke-miterlimit="8" fill="#F2F2F2" fill-rule="evenodd"/><path d="M2429.5 1140.5C2429.5 1140.5 2429.57 1140.5 2429.57 1140.5 2429.57 1140.5 2429.5 1140.5 2429.5 1140.5L2429.5 1140.5ZM2429.57 1140.5C2432.88 1140.83 2436.19 1141.06 2439.5 1141.5 2436.19 1141.06 2432.88 1140.72 2429.57 1140.5L2429.57 1140.5Z" stroke="#F2F2F2" stroke-width="3.4375" stroke-miterlimit="8" fill="#F2F2F2" fill-rule="evenodd"/><path d="M2917.27 1981.5C2845.94 1981.5 2773.17 1957.36 2700.92 1909.76 2859.66 1758.28 3031.39 1666.79 3241.21 1621.94L3246.61 1620.78 3241.49 1618.68C3192.92 1598.63 3146.27 1588.87 3098.97 1588.87 3065.77 1588.87 3032.87 1593.68 2998.39 1603.54 2926.14 1624.21 2856.91 1659.58 2789.95 1693.79L2782.87 1697.39C2736.08 1721.29 2691.4 1748.29 2644.06 1776.89 2624.13 1788.95 2603.57 1801.38 2582.5 1813.74 2610.62 1674.97 2706.25 1555.32 2859.28 1467.54 3007.74 1382.41 3200.2 1335.5 3401.19 1335.5 3546.21 1335.5 3689.24 1359.02 3826.5 1405.42 3586.71 1418.81 3460.14 1565.42 3337.7 1707.21 3262.66 1794.1 3191.82 1876.17 3096.63 1930.57 3037.58 1964.33 2977.22 1981.43 2917.24 1981.43L2917.24 1981.43Z" stroke="#F2F2F2" stroke-width="3.4375" stroke-miterlimit="8" fill="#F2F2F2" fill-rule="evenodd"/><path d="M3400.97 1336.97C3542.92 1336.97 3682.99 1359.55 3817.55 1404.1 3582.61 1420.6 3457.37 1565.75 3336.15 1706.22 3261.18 1793.08 3190.41 1875.13 3095.43 1929.4 3036.62 1963.01 2976.51 1980.06 2916.78 1980.06 2846.39 1980.06 2774.52 1956.42 2703.09 1909.74 2780.91 1835.7 2860.9 1776.93 2947.52 1730.18 3037.97 1681.37 3134.05 1646.52 3241.24 1623.6L3252.07 1621.29 3241.85 1617.06C3193.06 1596.89 3146.19 1587.09 3098.63 1587.09 3065.27 1587.09 3032.19 1591.91 2997.52 1601.84 2925.07 1622.6 2855.71 1658.04 2788.65 1692.3L2781.6 1695.91C2734.73 1719.87 2689.99 1746.89 2642.64 1775.52 2623.76 1786.93 2604.29 1798.68 2584.42 1810.44 2598.83 1742.59 2629.88 1678.8 2676.82 1620.67 2723.62 1562.72 2785.18 1511.65 2859.7 1468.89 3007.98 1383.82 3200.18 1336.97 3400.97 1336.97M3400.97 1333.53C2991.85 1333.53 2635.97 1525.29 2579.5 1817.31 2651.13 1775.31 2715.33 1733.62 2783.15 1698.97 2852.85 1663.36 2923.76 1626.52 2998.45 1605.14 3030.64 1595.93 3063.83 1590.53 3098.59 1590.53 3142.99 1590.53 3189.89 1599.33 3240.51 1620.23 3024.52 1666.42 2851.86 1762.49 2697.59 1910.22 2770.22 1958.48 2843.4 1983.5 2916.78 1983.5 2976.79 1983.5 3036.97 1966.76 3097.15 1932.36 3354.58 1785.14 3446.12 1422.69 3835.5 1406.51 3691.14 1356.56 3542.82 1333.5 3400.97 1333.5L3400.97 1333.5Z" stroke="#F2F2F2" stroke-width="3.4375" stroke-miterlimit="8" fill="#F2F2F2" fill-rule="evenodd"/><path d="M2135.88 1981.5C2016.1 1981.5 1905.3 1914.17 1797.12 1775.7 1640.5 1575.21 1495.86 1441.83 1261.5 1398.03 1415.57 1354.89 1579.45 1315.5 1736.72 1315.5 1881.6 1315.5 2008.53 1349.08 2124.73 1418.12 2255.58 1495.87 2374.26 1618.59 2487.5 1793.18 2424.28 1769.2 2364.56 1738.03 2306.74 1707.83 2194.22 1649.07 2087.93 1593.58 1966.05 1593.58 1918 1593.58 1871.18 1602.11 1822.92 1619.69L1817.18 1621.79 1823.19 1622.99C2036.43 1665.82 2207.67 1756.51 2361.95 1908.29 2281.87 1957.52 2207.91 1981.47 2135.91 1981.47L2135.91 1981.47Z" stroke="#F2F2F2" stroke-width="3.4375" stroke-miterlimit="8" fill="#F2F2F2" fill-rule="evenodd"/><path d="M1736.99 1313.5 1736.99 1316.94C1881.46 1316.94 2007.98 1350.43 2123.82 1419.26 2253.2 1496.17 2370.75 1617.23 2482.87 1789.1 2421.62 1765.45 2363.6 1735.16 2307.37 1705.8 2194.73 1646.97 2088.34 1591.41 1966.15 1591.41L1966.15 1591.41C1917.92 1591.41 1870.94 1599.97 1822.54 1617.61L1811.03 1621.8 1823.02 1624.21C1931.54 1646.01 2028.19 1680.18 2118.52 1728.63 2204.97 1775.01 2283.65 1833.49 2358.93 1907.34 2279.9 1955.61 2206.9 1979.1 2135.81 1979.1 2016.68 1979.1 1906.41 1912.05 1798.69 1774.08 1643.53 1575.45 1500.09 1442.6 1269.62 1397.39 1421.41 1355.1 1582.41 1316.94 1736.99 1316.94L1736.99 1313.5M1736.99 1313.5C1583.45 1313.5 1423.27 1350.6 1254.5 1398.04 1506.45 1442.74 1655.63 1596.46 1796.01 1776.18 1905.1 1915.83 2017.02 1982.5 2135.85 1982.5 2209.13 1982.5 2285.02 1957.16 2364.49 1907.96 2215.21 1760.57 2042.49 1664.78 1823.74 1620.84 1873.86 1602.62 1921.02 1594.85 1966.18 1594.85 2152.59 1594.85 2305.06 1726.67 2491.5 1796.05 2253.44 1426.79 2005.37 1313.5 1737.02 1313.5L1737.02 1313.5Z" stroke="#F2F2F2" stroke-width="3.4375" stroke-miterlimit="8" fill="#F2F2F2" fill-rule="evenodd"/><path d="M2538.5 850.5C2538.5 850.5 2538.5 850.5 2538.5 850.5 2585.83 810.845 2633.17 771.19 2680.5 731.5 2633.17 771.155 2585.83 810.811 2538.5 850.5Z" stroke="#F2F2F2" stroke-width="3.4375" stroke-miterlimit="8" fill="#F2F2F2" fill-rule="evenodd"/><path d="M2680.5 731.5C2662.05 746.968 2643.59 762.436 2625.14 777.904 2643.59 762.436 2662.05 746.968 2680.5 731.5L2680.5 731.5ZM2625.14 777.904C2596.26 802.103 2567.38 826.302 2538.5 850.5 2538.5 850.5 2538.5 850.5 2538.5 850.5 2567.38 826.302 2596.26 802.103 2625.14 777.904L2625.14 777.904Z" stroke="#F2F2F2" stroke-width="3.4375" stroke-miterlimit="8" fill="#F2F2F2" fill-rule="evenodd"/><path d="M2900.88 1062.5C2894.83 1060.64 2888.4 1058.58 2881.32 1056.18 2871.17 1052.74 2860.86 1049.06 2850.93 1045.52 2807.12 1029.85 2761.81 1013.66 2714.09 1013.66 2699.51 1013.66 2685.07 1015.2 2671.08 1018.19L2675.72 966.873 2636.08 994.2 2461.5 936.349 2474.56 923.528 2526.41 866.502C2526.41 866.502 2526.48 866.571 2526.48 866.571L2527.85 867.636 2528.89 866.261C2532.5 861.518 2536.07 856.74 2539.65 851.962L2680.78 733.923C2729.18 728.114 2763.01 707.283 2784.09 670.263 2822.91 662.7 2861.24 649.398 2898.3 636.508 2956.3 616.331 3016.26 595.5 3080.76 595.5 3094.1 595.5 3107.47 596.394 3120.5 598.181L3060.13 652.56C2963.97 735.71 2942.75 849.727 2922.23 959.998 2915.94 993.856 2909.41 1028.88 2900.81 1062.47Z" stroke="#F2F2F2" stroke-width="3.4375" stroke-miterlimit="8" fill="#F2F2F2" fill-rule="evenodd"/><path d="M3081.01 596.939 3081.01 596.939C3093.04 596.939 3105.04 597.661 3116.83 599.14L3103.29 611.347 3059.29 650.995C2962.65 734.625 2941.37 848.962 2920.81 959.551 2914.62 992.803 2908.23 1027.19 2899.88 1060.2 2894.34 1058.48 2888.5 1056.59 2882.1 1054.42 2871.96 1050.99 2861.68 1047.31 2851.75 1043.76 2807.81 1028.05 2762.36 1011.78 2714.34 1011.78 2700.45 1011.78 2686.63 1013.16 2673.26 1015.91L2677.35 970.555 2678 963.23 2671.95 967.391 2636.06 992.15 2474.35 938.54 2464.96 935.411 2476.03 924.545 2476.1 924.476 2476.17 924.407 2525.16 870.523 2526.84 868.666 2528.42 869.904 2530.56 867.084C2534.1 862.373 2537.64 857.662 2541.18 852.951L2673.7 742.087 2681.75 735.347C2730.19 729.432 2764.12 708.525 2785.47 671.559 2824.14 663.959 2862.27 650.686 2899.12 637.86 2956.98 617.743 3016.79 596.939 3080.98 596.939M3080.98 593.5C2974.41 593.5 2882.62 649.345 2783.23 668.498 2783.23 668.498 2783.23 668.43 2783.3 668.361 2760.82 708.491 2724.76 726.819 2680.55 732.046 2680.55 732.046 2680.92 731.53 2680.92 731.53 2633.48 771.213 2586.04 810.896 2538.6 850.612 2534.99 855.427 2531.38 860.241 2527.74 865.055 2527.74 865.055 2526.6 863.783 2526.6 863.783 2508.93 883.246 2491.26 902.675 2473.59 922.138 2468.57 927.089 2463.52 932.007 2458.5 936.924 2517.87 956.594 2577.21 976.263 2636.58 995.932 2647.75 988.23 2658.96 980.493 2673.88 970.177 2672.05 990.293 2670.71 1005.25 2669.34 1020.21 2669.34 1020.21 2669.34 1020.21 2669.34 1020.21 2669.34 1020.21 2669.34 1020.21 2669.34 1020.21 2684.64 1016.7 2699.59 1015.19 2714.24 1015.19 2772.47 1015.19 2826.17 1039.16 2880.9 1057.66 2887.98 1060.06 2895.1 1062.37 2902.21 1064.5 2939.2 921.278 2935.66 762.375 3061.42 653.575 3081.32 635.624 3101.23 617.674 3124.5 596.733 3109.65 594.497 3095.14 593.5 3080.87 593.5L3080.87 593.5ZM2783.58 667.88 2783.58 667.88ZM2783.58 667.88C2783.58 667.88 2783.4 668.155 2783.3 668.326 2783.4 668.155 2783.47 668.017 2783.58 667.88L2783.58 667.88Z" stroke="#F2F2F2" stroke-width="3.4375" stroke-miterlimit="8" fill="#F2F2F2" fill-rule="evenodd"/><path d="M2538.5 851.501C2538.5 851.501 2539.08 850.954 2539.42 850.681 2539.42 850.681 2539.42 850.591 2539.5 850.5 2539.5 850.5 2538.5 851.501 2538.5 851.501Z" stroke="#F2F2F2" stroke-width="3.4375" stroke-miterlimit="8" fill="#F2F2F2" fill-rule="evenodd"/><path d="M2539.5 850.5C2539.5 850.5 2538.5 851.501 2538.5 851.501 2538.83 851.227 2539.08 850.954 2539.42 850.681 2539.42 850.681 2539.42 850.591 2539.5 850.5L2539.5 850.5Z" stroke="#F2F2F2" stroke-width="3.4375" stroke-miterlimit="8" fill="#F2F2F2" fill-rule="evenodd"/><path d="M2603.6 1624.5C2559.87 1464.35 2588.33 1326.57 2625.94 1201.5L2861.5 1240.64C2820.87 1410.58 2761.2 1540.97 2603.6 1624.5Z" stroke="#F2F2F2" stroke-width="3.4375" stroke-miterlimit="8" fill="#F2F2F2" fill-rule="evenodd"/><path d="M2626.9 1203.38 2791.43 1230.66 2859.34 1241.92C2844.13 1305.21 2821.19 1385.97 2778.81 1456.74 2736.46 1527.48 2679.36 1581.4 2604.4 1621.45 2561.71 1463.4 2589.71 1327.14 2626.86 1203.38M2624.46 1199.5C2583.62 1334.76 2559.03 1470.71 2602.2 1626.5 2769.79 1538.67 2826.25 1395.48 2863.5 1239.14 2783.83 1225.93 2704.13 1212.71 2624.46 1199.5L2624.46 1199.5Z" stroke="#F2F2F2" stroke-width="3.4375" stroke-miterlimit="8" fill="#F2F2F2" fill-rule="evenodd"/><path d="M2626.5 1198.25 2670.7 1021.26C2685.02 1018.05 2699.28 1016.5 2714.25 1016.5 2761.45 1016.5 2806.52 1032.68 2850.13 1048.3 2860.12 1051.89 2870.45 1055.58 2880.64 1059.03 2887.83 1061.48 2894.37 1063.58 2900.5 1065.45L2862.29 1237.5 2626.5 1198.25Z" stroke="#F2F2F2" stroke-width="3.4375" stroke-miterlimit="8" fill="#F2F2F2" fill-rule="evenodd"/><path d="M2714.31 1018.94C2761.18 1018.94 2806.12 1035 2849.54 1050.54 2859.52 1054.12 2869.84 1057.8 2880.03 1061.24 2886.64 1063.47 2892.69 1065.43 2898.44 1067.18L2860.97 1235.58 2812.83 1227.57 2628.73 1197 2646.32 1126.81 2672.19 1023.41C2686.03 1020.38 2699.82 1018.94 2714.31 1018.94M2714.31 1015.5C2699.65 1015.5 2684.68 1017.01 2669.37 1020.52 2669.37 1020.52 2669.37 1020.52 2669.37 1020.52 2654.4 1080.25 2639.43 1140.02 2624.5 1199.78L2624.5 1199.78C2704.23 1213.02 2783.92 1226.26 2863.62 1239.5 2876.59 1181.28 2889.53 1123.03 2902.5 1064.81 2895.34 1062.68 2888.25 1060.34 2881.17 1057.97 2826.39 1039.47 2772.64 1015.5 2714.35 1015.5L2714.35 1015.5Z" stroke="#F2F2F2" stroke-width="3.4375" stroke-miterlimit="8" fill="#F2F2F2" fill-rule="evenodd"/><path d="M2428.87 1582.5C2360.79 1433.56 2342.71 1284.21 2375.11 1138.5 2388.23 1141.22 2401.51 1141.97 2413.98 1142.39 2417.4 1142.49 2420.83 1142.59 2424.25 1142.66L2429.39 1142.8C2432.81 1142.9 2436.2 1142.97 2439.59 1143.11 2445.41 1143.35 2450.24 1143.62 2454.76 1144 2460.17 1144.48 2465.07 1145.07 2469.66 1145.82 2473.05 1146.41 2476.3 1147.06 2479.35 1147.82 2484.32 1149.02 2489.08 1150.53 2493.5 1152.25 2506.58 1157.41 2517.71 1165.04 2527.5 1175.56L2428.91 1582.47Z" stroke="#F2F2F2" stroke-width="3.4375" stroke-miterlimit="8" fill="#F2F2F2" fill-rule="evenodd"/><path d="M2376.32 1140.55C2389.04 1143.03 2401.84 1143.75 2413.87 1144.16 2417.3 1144.27 2420.73 1144.37 2424.16 1144.44L2425.37 1144.44C2425.37 1144.44 2429.31 1144.58 2429.31 1144.58 2432.71 1144.68 2436.14 1144.75 2439.53 1144.88 2445.33 1145.13 2450.13 1145.4 2454.66 1145.78 2460.01 1146.23 2464.84 1146.84 2469.44 1147.6 2472.77 1148.15 2475.99 1148.8 2479.04 1149.56 2483.95 1150.76 2488.65 1152.2 2492.97 1153.92 2505.56 1158.87 2516.3 1166.16 2525.76 1176.12L2480.07 1364.23 2428.38 1577.09C2396.9 1507.36 2376.25 1437.19 2366.88 1368.46 2356.56 1292.51 2359.75 1215.88 2376.32 1140.55M2373.71 1136.5C2337.8 1295.92 2363.83 1446.5 2429.38 1587.5 2462.68 1450.32 2496.09 1312.72 2529.5 1175.09 2518.63 1163.27 2506.76 1155.64 2494.17 1150.69 2489.47 1148.84 2484.67 1147.36 2479.8 1146.19 2476.54 1145.4 2473.28 1144.75 2469.96 1144.2 2464.98 1143.37 2459.97 1142.79 2454.9 1142.34 2449.82 1141.9 2444.74 1141.62 2439.63 1141.45 2436.24 1141.31 2432.81 1141.21 2429.38 1141.14 2427.66 1141.1 2425.95 1141.04 2424.23 1141 2420.8 1140.93 2417.37 1140.83 2413.98 1140.73 2400.33 1140.28 2386.74 1139.39 2373.67 1136.53L2373.67 1136.53Z" stroke="#F2F2F2" stroke-width="3.4375" stroke-miterlimit="8" fill="#F2F2F2" fill-rule="evenodd"/><path d="M2529.69 1172.47C2519.7 1162.05 2508.41 1154.43 2495.19 1149.23 2490.57 1147.44 2485.65 1145.88 2480.52 1144.64 2477.35 1143.88 2474.01 1143.19 2470.53 1142.61 2465.82 1141.82 2460.86 1141.19 2455.28 1140.75 2450.67 1140.37 2445.78 1140.06 2439.85 1139.85 2436.41 1139.71 2432.97 1139.61 2429.52 1139.54L2424.43 1139.4C2420.95 1139.3 2417.51 1139.23 2414.06 1139.13 2401.67 1138.71 2388.45 1137.95 2375.5 1135.26 2388.31 1052.1 2414.96 989.493 2459.27 938.5L2634.5 996.63 2529.65 1172.5Z" stroke="#F2F2F2" stroke-width="3.4375" stroke-miterlimit="8" fill="#F2F2F2" fill-rule="evenodd"/><path d="M2459.54 940.52 2631.28 997.417 2528.88 1168.93C2519.12 1159.18 2508.16 1152 2495.41 1146.98 2490.77 1145.16 2485.76 1143.58 2480.57 1142.31 2477.37 1141.52 2473.97 1140.83 2470.47 1140.25 2465.69 1139.45 2460.67 1138.84 2455.11 1138.36 2450.47 1137.98 2445.56 1137.67 2439.65 1137.43 2436.21 1137.29 2432.77 1137.19 2429.34 1137.12L2425.49 1137.02 2424.22 1137.02C2420.78 1136.91 2417.38 1136.81 2413.98 1136.71 2402.19 1136.33 2389.68 1135.61 2377.38 1133.24 2390.13 1051.98 2416.31 990.58 2459.61 940.52M2458.51 936.534C2408.38 993.706 2384.67 1062.18 2373.5 1135.95 2386.59 1138.8 2400.16 1139.7 2413.87 1140.14 2417.31 1140.25 2420.71 1140.35 2424.15 1140.42 2425.87 1140.45 2427.58 1140.49 2429.3 1140.55 2432.74 1140.66 2436.14 1140.73 2439.58 1140.86 2444.7 1141.07 2449.82 1141.34 2454.87 1141.76 2459.95 1142.2 2464.97 1142.79 2469.95 1143.61 2473.25 1144.16 2476.55 1144.81 2479.81 1145.61 2484.69 1146.77 2489.5 1148.25 2494.21 1150.11 2506.79 1155.05 2518.71 1162.65 2529.6 1174.5 2565.24 1114.82 2600.87 1055.14 2636.5 995.459 2577.16 975.806 2517.85 956.153 2458.51 936.5L2458.51 936.5Z" stroke="#F2F2F2" stroke-width="3.4375" stroke-miterlimit="8" fill="#F2F2F2" fill-rule="evenodd"/><path d="M2793.5 664.466C2888.49 609.995 2990.52 583.5 3105.05 583.5 3140.36 583.5 3177.48 586.115 3215.5 591.242L3069.75 648.328 3128.48 595.302 3124.87 594.752C3110.52 592.618 3095.78 591.517 3081.02 591.517 3016.01 591.517 2955.84 612.473 2897.63 632.774 2863.73 644.577 2828.8 656.758 2793.5 664.5Z" stroke="#F2F2F2" stroke-width="3.4375" stroke-miterlimit="8" fill="#F2F2F2" fill-rule="evenodd"/><path d="M3105.2 585.921C3138.4 585.921 3173.21 588.213 3208.89 592.729L3162.08 610.927 3078.05 643.631 3103.79 620.574 3127.13 599.639 3132.52 594.781 3125.3 593.721C3110.87 591.565 3096.02 590.471 3081.17 590.471 3015.84 590.471 2955.45 611.372 2897.09 631.555 2866.98 641.954 2836.08 652.662 2804.84 660.29 2896.68 610.243 2995.18 585.887 3105.23 585.887M3105.2 582.5C2990.64 582.5 2884.13 609.012 2783.5 668.5 2882.86 649.446 2974.63 593.892 3081.17 593.892 3095.44 593.892 3109.94 594.884 3124.79 597.107 3101.52 617.974 3081.62 635.831 3061.72 653.654 3112.97 633.71 3164.21 613.767 3222.5 591.087 3182.46 585.442 3143.38 582.5 3105.2 582.5L3105.2 582.5Z" stroke="#F2F2F2" stroke-width="3.4375" stroke-miterlimit="8" fill="#F2F2F2" fill-rule="evenodd"/><path d="M2539.5 850.5C2539.5 850.5 2538.86 851.167 2538.5 851.5" stroke="#F2F2F2" stroke-width="3.4375" stroke-miterlimit="8" fill="#F2F2F2" fill-rule="evenodd"/><path d="M2538.5 850.5C2585.83 810.845 2633.17 771.19 2680.5 731.5" stroke="#F2F2F2" stroke-width="3.4375" stroke-miterlimit="8" fill="#F2F2F2" fill-rule="evenodd"/><path d="M2688.5 729.5 2778.5 673.5C2759.09 704.55 2729.52 722.954 2688.5 729.5Z" stroke="#F2F2F2" stroke-width="3.4375" stroke-miterlimit="8" fill="#F2F2F2" fill-rule="evenodd"/><path d="M2772.6 678.473C2755 703.379 2730.01 719.124 2696.9 726.23L2772.6 678.473M2783.5 667.5C2749.16 689.167 2714.81 710.833 2680.5 732.5 2724.88 727.171 2761.05 708.5 2783.5 667.5L2783.5 667.5Z" stroke="#F2F2F2" stroke-width="3.4375" stroke-miterlimit="8" fill="#F2F2F2" fill-rule="evenodd"/><path d="M2473.5 922.5C2491.17 902.822 2508.83 883.179 2526.5 863.5" stroke="#F2F2F2" stroke-width="3.4375" stroke-miterlimit="8" fill="#F2F2F2" fill-rule="evenodd"/><path d="M2538.5 850.5C2534.84 855.167 2531.19 859.833 2527.5 864.5" stroke="#F2F2F2" stroke-width="3.4375" stroke-miterlimit="8" fill="#F2F2F2" fill-rule="evenodd"/><path d="M2538.5 851.5C2538.5 851.5 2538.5 851 2539.5 850.5" stroke="#F2F2F2" stroke-width="3.4375" stroke-miterlimit="8" fill="#F2F2F2" fill-rule="evenodd"/></g></svg>