<svg width="157" height="157" xmlns="http://www.w3.org/2000/svg" xmlns:xlink="http://www.w3.org/1999/xlink" overflow="hidden"><defs><clipPath id="clip0"><rect x="465" y="363" width="157" height="157"/></clipPath></defs><g clip-path="url(#clip0)" transform="translate(-465 -363)"><path d="M509.483 363C505.182 363 501.633 366.548 501.633 370.85L501.633 402.25C501.633 405.73 506.867 405.756 506.867 402.25L506.867 370.85C506.867 369.353 507.987 368.233 509.483 368.233L614.15 368.233C615.647 368.233 616.767 369.353 616.767 370.85L616.767 512.15C616.767 513.647 615.647 514.767 614.15 514.767L509.483 514.767C507.987 514.767 506.867 513.647 506.867 512.15L506.867 475.517C506.867 472.063 501.633 472.094 501.633 475.517L501.633 512.15C501.633 516.452 505.182 520 509.483 520L614.15 520C618.452 520 622 516.452 622 512.15L622 370.85C622 366.548 618.452 363 614.15 363ZM488.55 462.433C490.905 462.433 491.915 459.487 490.403 457.964L471.317 438.883 490.403 419.803C492.716 417.573 489.073 413.732 486.697 416.097L465.764 437.031C464.744 438.056 464.744 439.71 465.764 440.736L486.697 461.669C487.195 462.177 487.849 462.433 488.55 462.433ZM556.583 441.5 483.317 441.5C481.867 441.5 480.7 440.333 480.7 438.883 480.7 437.434 481.867 436.267 483.317 436.267L556.583 436.267C558.033 436.267 559.2 437.434 559.2 438.883 559.2 440.333 558.033 441.5 556.583 441.5Z" fill="#F2F2F2"/></g></svg>