<?xml version="1.0" encoding="UTF-8"?>
<svg id="Capa_2" data-name="Capa 2" xmlns="http://www.w3.org/2000/svg" viewBox="0 0 947.29 1200">
  <defs>
    <style>
      .cls-1 {
        fill: #f2f2f2;
      }
    </style>
  </defs>
  <g id="Capa_1-2" data-name="Capa 1">
    <g>
      <path class="cls-1" d="m501.91,0c93.14,14.55,164.83,60.11,200.85,149.27,36.36,90.01,4.67,171.38-93.55,255.86-8.51,7.32-17.18,14.47-27.1,22.81,151.2,61.82,229.66,181.14,268.72,332.09,9.83-2.16,18.11-3.97,27.52-6.04,24.97-63.88,42.63-128.5,29.41-198.2-7.35-38.78-38.72-55.13-66.24-76.09-12.58-9.58-40.72-15.37-26.55-38.42,14.63-23.8,29.44,2.74,45.34,7.61-7.84-79.84-31.78-150.77-100.96-198.95-10.4-7.24-19.34-15.96-10.22-28.77,9.55-13.43,20.53-7.11,31.29.51,70.66,50.03,108.17,121.55,110.77,204.63,1.82,57.93,54.87,88.98,55.99,145.39,1.37,69.12-9.92,134.22-37.86,196.71-9.86,22.04-33.36,21.57-53.3,26.64.38,65.76-14.24,127.4-43.16,185.68-5.26,10.6-13.14,16-24.55,10.71-10.84-5.03-13.03-14.84-7.48-24.63,117.38-207.31-54.63-462.7-234.02-514.67-87.77,72.43-202.96,102.46-293.55,173.47-220.21,172.61-96.78,398.04,65.63,492.32,146.15,84.83,304.16,49.56,418.92-87.16,8.52-10.15,17.68-20.65,31-9.82,13.46,10.95,5.25,22.33-3.69,32.09-99.39,108.36-216.97,176-367.72,134.7-157.95-43.27-257.12-149.61-293.92-311.12-.68-3-1.45-5.99-2.27-9.01C-.92,844.88,12.63,757.36,5.07,687.15c-18.95-176.14,13.56-341.13,125.33-484.57,7.88-10.12,16.47-18.87,29.02-9.85,13.39,9.63,7.05,20.8-.93,31.26C25.58,398.11,13.96,593.63,58.18,798.55c3.89,18.04,22.22,24.44,37.06,31.48,22.74-148.25,116.8-235.95,244.11-297.83,110.44-53.68,218.4-111.87,299.36-208.14,49.25-58.56,63.43-147.79,19.44-183.14-52.78-42.41-114.08-25.34-168.78,6.83-21.67,12.75-40.68,30.1-60.6,45.74-9.4,7.38-18.96,10.77-27.85.94-9.06-10.01-4.57-19.33,4.28-27.37,58.39-53.01,122.67-91.35,206.27-82.47-54.62-60.78-178.84-64.8-277.97-9.89-41.93,23.23-79.79,51.79-114.64,84.54-9.57,9-20.14,19.91-32.74,6.49-12.61-13.43-1.19-23.02,8.57-32.13C267.63,65.55,349.19,14.07,450.33,0h51.58Z"/>
      <path class="cls-1" d="m638.31,620.28c67.11.03,123.11,55.72,123.4,122.73.29,67.02-56.97,124.14-123.89,123.59-67.46-.56-122.6-56.15-122.46-123.48.14-67.45,55.61-122.87,122.94-122.84Zm-88.6,123.36c6.53,53.41,34.87,87.18,89.16,86.72,54.02-.46,86.84-33.84,86.47-87.49-.37-53.52-33.16-86.54-87.48-86.4-54.64.15-82.03,34.38-88.14,87.16Z"/>
      <path class="cls-1" d="m315.1,620.31c68.4,1.32,122.61,57.33,121.44,125.46-1.14,66.57-57.92,121.94-123.91,120.84-67.96-1.13-123.45-57.87-122.32-125.07,1.13-67.11,58.16-122.52,124.79-121.23Zm.23,34.46c-53.57,5.14-87.96,33-88.72,87.04-.75,53.64,31.25,87.48,85.4,88.42,53.3.92,86.64-30.52,88.36-84.14,1.77-55.25-31.79-83.82-85.04-91.32Z"/>
      <path class="cls-1" d="m480.3,942.02c54.51-14.59,90.72,20.14,126.81,46.77,14.62,10.79-2.15,30.5-18.37,35.48-71.04,21.8-142.63,21.46-213.87.3-12.64-3.75-21.85-13-22.51-27.04-.64-13.53,10.8-17.64,20.62-22.45,34.55-16.94,64.45-49.67,107.32-33.06Zm-79.15,55.26c55.91,9.27,105.11,9.63,161.78-.37-56.71-28.09-105.94-30.07-161.78.37Z"/>
      <path class="cls-1" d="m641.32,776.56c-14.02-4.35-28.46-7.51-41.73-13.33-11.78-5.16-26.78-11.95-18.29-29.04,8.61-17.32,21.62-8.93,33.58-2.36,16.84,9.25,34.24,9.61,51.39,1.06,12.44-6.2,26.5-17.59,35.46,1.45,8.9,18.91-8.91,24.83-21.61,30.36-11.89,5.18-24.91,7.74-38.8,11.86Z"/>
      <path class="cls-1" d="m310.75,776.39c-13.64-3.99-27.04-6.62-39.32-11.87-12.82-5.49-30.27-11.75-21.1-30.59,8.75-17.98,22.57-7.71,34.71-1.42,17.06,8.85,34.42,8.68,51.36-.37,12.24-6.53,25.72-15.84,34.35,2.5,8.48,18-8.03,23.93-19.86,29.23-12.52,5.61-26.33,8.35-40.16,12.52Z"/>
    </g>
  </g>
</svg>