<svg width="2598" height="1405" xmlns="http://www.w3.org/2000/svg" xmlns:xlink="http://www.w3.org/1999/xlink" overflow="hidden"><defs><clipPath id="clip0"><rect x="-1298" y="1072" width="2598" height="1405"/></clipPath></defs><g clip-path="url(#clip0)" transform="translate(1298 -1072)"><path d="M-89.4999 1634.5C-84.4429 1634.74-79.4541 1635.06-74.4997 1635.5-79.4541 1635.06-84.4429 1634.74-89.4999 1634.5Z" stroke="#582562" stroke-width="3.4375" stroke-miterlimit="8" fill="#582562" fill-rule="evenodd"/><path d="M-89.4999 1634.5C-84.4429 1634.74-79.4541 1635.06-74.4997 1635.5-79.4541 1635.06-84.4429 1634.74-89.4999 1634.5L-89.4999 1634.5Z" stroke="#582562" stroke-width="3.4375" stroke-miterlimit="8" fill="#582562" fill-rule="evenodd"/><path d="M-130.5 1632.5C-127.156 1632.88-123.844 1633.25-120.5 1633.5-123.844 1633.25-127.189 1632.88-130.5 1632.5Z" stroke="#582562" stroke-width="3.4375" stroke-miterlimit="8" fill="#582562" fill-rule="evenodd"/><path d="M-130.5 1632.5C-127.156 1632.88-123.844 1633.25-120.5 1633.5-123.844 1633.25-127.189 1632.88-130.5 1632.5L-130.5 1632.5Z" stroke="#582562" stroke-width="3.4375" stroke-miterlimit="8" fill="#582562" fill-rule="evenodd"/><path d="M-74.5001 1635.5C-71.1551 1636.05-67.81 1636.71-64.4998 1637.5-67.81 1636.71-71.1203 1636.05-74.5001 1635.5Z" stroke="#582562" stroke-width="3.4375" stroke-miterlimit="8" fill="#582562" fill-rule="evenodd"/><path d="M-74.5001 1635.5C-71.1551 1636.05-67.81 1636.71-64.4998 1637.5-67.81 1636.71-71.1203 1636.05-74.5001 1635.5L-74.5001 1635.5Z" stroke="#582562" stroke-width="3.4375" stroke-miterlimit="8" fill="#582562" fill-rule="evenodd"/><path d="M-114.5 1632.5C-111.155 1632.83-107.811 1633.06-104.5 1633.5-107.811 1633.06-111.155 1632.72-114.5 1632.5Z" stroke="#582562" stroke-width="3.4375" stroke-miterlimit="8" fill="#582562" fill-rule="evenodd"/><path d="M-114.5 1632.5C-114.5 1632.5-114.433 1632.5-114.433 1632.5-114.433 1632.5-114.5 1632.5-114.5 1632.5L-114.5 1632.5ZM-114.433 1632.5C-111.122 1632.83-107.811 1633.06-104.5 1633.5-107.811 1633.06-111.122 1632.72-114.433 1632.5L-114.433 1632.5Z" stroke="#582562" stroke-width="3.4375" stroke-miterlimit="8" fill="#582562" fill-rule="evenodd"/><path d="M372.27 2473.5C300.943 2473.5 228.173 2449.36 155.919 2401.76 314.659 2250.28 486.392 2158.79 696.212 2113.94L701.608 2112.78 696.487 2110.68C647.916 2090.63 601.27 2080.87 553.971 2080.87 520.766 2080.87 487.87 2085.68 453.393 2095.54 381.138 2116.21 311.909 2151.58 244.948 2185.79L237.867 2189.39C191.084 2213.29 146.397 2240.29 99.0641 2268.89 79.1271 2280.95 58.5712 2293.38 37.5 2305.74 65.6178 2166.97 161.247 2047.32 314.281 1959.54 462.743 1874.41 655.203 1827.5 856.189 1827.5 1001.21 1827.5 1144.24 1851.02 1281.5 1897.42 1041.71 1910.81 915.141 2057.42 792.7 2199.21 717.661 2286.1 646.816 2368.17 551.634 2422.57 492.579 2456.33 432.218 2473.43 372.236 2473.43L372.236 2473.43Z" stroke="#582562" stroke-width="3.4375" stroke-miterlimit="8" fill="#582562" fill-rule="evenodd"/><path d="M856.969 1828.97C998.924 1828.97 1138.99 1851.55 1273.55 1896.1 1038.61 1912.6 913.366 2057.75 792.147 2198.22 717.18 2285.08 646.409 2367.13 551.428 2421.4 492.625 2455.01 432.513 2472.06 372.781 2472.06 302.388 2472.06 230.516 2448.42 159.092 2401.74 236.912 2327.7 316.9 2268.93 403.524 2222.18 493.965 2173.37 590.046 2138.52 697.235 2115.6L708.067 2113.29 697.854 2109.06C649.057 2088.89 602.186 2079.09 554.626 2079.09 521.27 2079.09 488.188 2083.91 453.525 2093.84 381.068 2114.6 311.707 2150.04 244.65 2184.3L237.6 2187.91C190.729 2211.87 145.99 2238.89 98.6369 2267.52 79.7578 2278.93 60.2938 2290.68 40.4175 2302.44 54.826 2234.59 85.8787 2170.8 132.819 2112.67 179.622 2054.72 241.177 2003.65 315.696 1960.89 463.979 1875.82 656.175 1828.97 856.969 1828.97M856.969 1825.53C447.851 1825.53 91.9654 2017.29 35.4999 2309.31 107.131 2267.31 171.334 2225.62 239.148 2190.97 308.853 2155.36 379.762 2118.52 454.453 2097.14 486.641 2087.93 519.825 2082.53 554.592 2082.53 598.988 2082.53 645.893 2091.33 696.513 2112.23 480.519 2158.42 307.856 2254.49 153.589 2402.22 226.217 2450.48 299.396 2475.5 372.781 2475.5 432.788 2475.5 492.968 2458.76 553.148 2424.36 810.579 2277.14 902.121 1914.69 1291.5 1898.51 1147.14 1848.56 998.821 1825.5 856.969 1825.5L856.969 1825.5Z" stroke="#582562" stroke-width="3.4375" stroke-miterlimit="8" fill="#582562" fill-rule="evenodd"/><path d="M-408.835 2472.5C-528.514 2472.5-639.221 2405.28-747.316 2267.01-903.805 2066.82-1048.33 1933.64-1282.5 1889.91-1128.55 1846.83-964.813 1807.5-807.671 1807.5-662.902 1807.5-536.075 1841.03-419.971 1909.97-289.226 1987.6-170.648 2110.13-57.4999 2284.46-120.673 2260.52-180.34 2229.4-238.117 2199.24-350.543 2140.57-456.748 2085.16-578.523 2085.16-626.538 2085.16-673.317 2093.68-721.539 2111.23L-727.278 2113.33-721.264 2114.53C-508.201 2157.3-337.104 2247.84-182.952 2399.4-262.967 2448.56-336.864 2472.47-408.801 2472.47L-408.801 2472.47Z" stroke="#582562" stroke-width="3.4375" stroke-miterlimit="8" fill="#582562" fill-rule="evenodd"/><path d="M-807.622 1805.5-807.622 1808.94C-663.037 1808.94-536.41 1842.43-420.481 1911.26-290.998 1988.17-173.348 2109.23-61.1346 2281.1-122.436 2257.45-180.504 2227.16-236.783 2197.8-349.513 2138.97-455.982 2083.41-578.275 2083.41L-578.275 2083.41C-626.539 2083.41-673.564 2091.97-722 2109.61L-733.524 2113.8-721.518 2116.21C-612.916 2138.01-516.182 2172.18-425.778 2220.63-339.261 2267.01-260.519 2325.49-185.182 2399.34-264.269 2447.61-337.335 2471.1-408.475 2471.1-527.706 2471.1-638.063 2404.05-745.874 2266.08-901.156 2067.45-1044.71 1934.6-1275.36 1889.39-1123.45 1847.1-962.321 1808.94-807.622 1808.94L-807.622 1805.5M-807.622 1805.5C-961.288 1805.5-1121.59 1842.6-1290.5 1890.04-1038.35 1934.74-889.048 2088.46-748.557 2268.18-639.37 2407.83-527.363 2474.5-408.441 2474.5-335.099 2474.5-259.143 2449.16-179.609 2399.96-329.01 2252.57-501.872 2156.78-720.796 2112.84-670.64 2094.62-623.443 2086.85-578.241 2086.85-391.687 2086.85-239.088 2218.67-52.5 2288.05-290.757 1918.79-539.024 1805.5-807.588 1805.5L-807.588 1805.5Z" stroke="#582562" stroke-width="3.4375" stroke-miterlimit="8" fill="#582562" fill-rule="evenodd"/><path d="M-5.5 1342.5C-5.5 1342.5-5.5 1342.5-5.5 1342.5 41.8334 1302.84 89.1669 1263.19 136.5 1223.5 89.1669 1263.16 41.8334 1302.81-5.5 1342.5Z" stroke="#582562" stroke-width="3.4375" stroke-miterlimit="8" fill="#582562" fill-rule="evenodd"/><path d="M136.5 1223.5C118.047 1238.97 99.594 1254.44 81.141 1269.9 99.594 1254.44 118.047 1238.97 136.5 1223.5L136.5 1223.5ZM81.141 1269.9C52.2605 1294.1 23.3801 1318.3-5.5 1342.5-5.5 1342.5-5.5 1342.5-5.5 1342.5 23.3801 1318.3 52.2605 1294.1 81.141 1269.9L81.141 1269.9Z" stroke="#582562" stroke-width="3.4375" stroke-miterlimit="8" fill="#582562" fill-rule="evenodd"/><path d="M356.879 1554.5C350.828 1552.64 344.399 1550.58 337.317 1548.18 327.175 1544.74 316.861 1541.06 306.925 1537.52 263.124 1521.85 217.811 1505.66 170.092 1505.66 155.514 1505.66 141.075 1507.2 127.082 1510.19L131.723 1458.87 92.083 1486.2-82.5 1428.35-69.4355 1415.53-17.5901 1358.5C-17.5901 1358.5-17.5215 1358.57-17.5215 1358.57L-16.1463 1359.64-15.1147 1358.26C-11.5049 1353.52-7.92937 1348.74-4.35382 1343.96L136.777 1225.92C185.184 1220.11 219.014 1199.28 240.09 1162.26 278.905 1154.7 317.239 1141.4 354.301 1128.51 412.3 1108.33 472.259 1087.5 536.757 1087.5 550.096 1087.5 563.47 1088.39 576.5 1090.18L516.129 1144.56C419.967 1227.71 398.754 1341.73 378.229 1452 371.938 1485.86 365.406 1520.88 356.811 1554.47Z" stroke="#582562" stroke-width="3.4375" stroke-miterlimit="8" fill="#582562" fill-rule="evenodd"/><path d="M537.012 1088.94 537.012 1088.94C549.045 1088.94 561.042 1089.66 572.834 1091.14L559.289 1103.35 515.286 1143C418.65 1226.62 397.37 1340.96 376.812 1451.55 370.624 1484.8 364.23 1519.19 355.876 1552.2 350.341 1550.48 344.497 1548.59 338.103 1546.42 327.961 1542.99 317.682 1539.31 307.747 1535.76 263.812 1520.05 218.365 1503.78 170.339 1503.78 156.451 1503.78 142.631 1505.16 129.258 1507.91L133.349 1462.55 134.002 1455.23 127.951 1459.39 92.0609 1484.15-69.652 1430.54-79.0371 1427.41-67.9673 1416.54-67.8987 1416.48-67.8298 1416.41-18.8415 1362.52-17.1571 1360.67-15.5759 1361.9-13.4443 1359.08C-9.90332 1354.37-6.36268 1349.66-2.82169 1344.95L129.705 1234.09 137.749 1227.35C186.187 1221.43 220.118 1200.52 241.467 1163.56 280.142 1155.96 318.267 1142.69 355.12 1129.86 412.977 1109.74 472.795 1088.94 536.978 1088.94M536.978 1085.5C430.407 1085.5 338.618 1141.34 239.232 1160.5 239.232 1160.5 239.232 1160.43 239.301 1160.36 216.818 1200.49 180.756 1218.82 136.546 1224.05 136.546 1224.05 136.924 1223.53 136.924 1223.53 89.4825 1263.21 42.0416 1302.9-5.40011 1342.61-9.00968 1347.43-12.6193 1352.24-16.2631 1357.05-16.2631 1357.05-17.3979 1355.78-17.3979 1355.78-35.0678 1375.25-52.7382 1394.67-70.4082 1414.14-75.4275 1419.09-80.4811 1424.01-85.5001 1428.92-26.1296 1448.59 33.2062 1468.26 92.5767 1487.93 103.749 1480.23 114.957 1472.49 129.876 1462.18 128.055 1482.29 126.714 1497.25 125.339 1512.21 125.339 1512.21 125.339 1512.21 125.339 1512.21 125.339 1512.21 125.339 1512.21 125.339 1512.21 140.637 1508.7 155.591 1507.19 170.236 1507.19 228.472 1507.19 282.17 1531.16 336.9 1549.66 343.981 1552.06 351.097 1554.37 358.214 1556.5 395.204 1413.28 391.663 1254.38 517.417 1145.57 537.322 1127.62 557.226 1109.67 580.5 1088.73 565.649 1086.5 551.142 1085.5 536.875 1085.5L536.875 1085.5ZM239.576 1159.88 239.576 1159.88ZM239.576 1159.88C239.576 1159.88 239.404 1160.15 239.301 1160.33 239.404 1160.15 239.473 1160.02 239.576 1159.88L239.576 1159.88Z" stroke="#582562" stroke-width="3.4375" stroke-miterlimit="8" fill="#582562" fill-rule="evenodd"/><path d="M-6.50003 1343.5C-6.50003 1343.5-5.91646 1342.95-5.58312 1342.68-5.58312 1342.68-5.58312 1342.59-5.5 1342.5-5.5 1342.5-6.50003 1343.5-6.50003 1343.5Z" stroke="#582562" stroke-width="3.4375" stroke-miterlimit="8" fill="#582562" fill-rule="evenodd"/><path d="M-5.5 1342.5C-5.5 1342.5-6.50003 1343.5-6.50003 1343.5-6.16669 1343.23-5.91646 1342.95-5.58312 1342.68-5.58312 1342.68-5.58312 1342.59-5.5 1342.5L-5.5 1342.5Z" stroke="#582562" stroke-width="3.4375" stroke-miterlimit="8" fill="#582562" fill-rule="evenodd"/><path d="M59.5967 2116.5C15.8738 1956.35 44.3349 1818.57 81.9396 1693.5L317.5 1732.64C276.871 1902.58 217.198 2032.97 59.5967 2116.5Z" stroke="#582562" stroke-width="3.4375" stroke-miterlimit="8" fill="#582562" fill-rule="evenodd"/><path d="M82.8977 1695.38 247.432 1722.66 315.338 1733.92C300.133 1797.21 277.188 1877.97 234.808 1948.74 192.462 2019.48 135.358 2073.4 60.4004 2113.45 17.7102 1955.4 45.7115 1819.14 82.8634 1695.38M80.4556 1691.5C39.6228 1826.76 15.0268 1962.71 58.1988 2118.5 225.795 2030.67 282.245 1887.48 319.5 1731.14 239.83 1717.93 160.126 1704.71 80.4556 1691.5L80.4556 1691.5Z" stroke="#582562" stroke-width="3.4375" stroke-miterlimit="8" fill="#582562" fill-rule="evenodd"/><path d="M82.5 1689.42 126.542 1513.24C140.811 1510.04 155.012 1508.5 169.933 1508.5 216.959 1508.5 261.859 1524.6 305.318 1540.16 315.266 1543.73 325.556 1547.4 335.709 1550.84 342.878 1553.28 349.395 1555.37 355.5 1557.22L317.426 1728.5 82.5 1689.42Z" stroke="#582562" stroke-width="3.4375" stroke-miterlimit="8" fill="#582562" fill-rule="evenodd"/><path d="M169.988 1509.94C216.686 1509.94 261.464 1526 304.733 1541.54 314.676 1545.12 324.962 1548.8 335.111 1552.24 341.694 1554.47 347.729 1556.43 353.454 1558.18L316.117 1726.58 268.15 1718.57 84.7173 1688 102.237 1617.81 128.021 1514.41C141.804 1511.38 155.553 1509.94 169.988 1509.94M169.988 1506.5C155.382 1506.5 140.467 1508.01 125.209 1511.52 125.209 1511.52 125.209 1511.52 125.209 1511.52 110.295 1571.25 95.3801 1631.02 80.4999 1690.78L80.4999 1690.78C159.942 1704.02 239.349 1717.26 318.756 1730.5 331.683 1672.28 344.574 1614.03 357.5 1555.81 350.369 1553.68 343.306 1551.34 336.243 1548.97 281.659 1530.47 228.103 1506.5 170.022 1506.5L170.022 1506.5Z" stroke="#582562" stroke-width="3.4375" stroke-miterlimit="8" fill="#582562" fill-rule="evenodd"/><path d="M-115.713 2074.5C-184.197 1925.56-202.386 1776.21-169.798 1630.5-156.604 1633.22-143.238 1633.97-130.698 1634.38-127.253 1634.49-123.808 1634.59-120.363 1634.66L-115.196 1634.8C-111.751 1634.9-108.341 1634.97-104.93 1635.11-99.0738 1635.35-94.2166 1635.62-89.6693 1636-84.2266 1636.48-79.3003 1637.07-74.6843 1637.82-71.2738 1638.41-68.001 1639.06-64.9351 1639.82-59.9401 1641.02-55.1516 1642.53-50.7074 1644.25-37.5481 1649.41-26.3522 1657.04-16.4996 1667.56L-115.678 2074.47Z" stroke="#582562" stroke-width="3.4375" stroke-miterlimit="8" fill="#582562" fill-rule="evenodd"/><path d="M-168.575 1632.55C-155.775 1635.03-142.907 1635.75-130.797 1636.16-127.348 1636.27-123.898 1636.37-120.448 1636.44L-119.24 1636.44C-119.24 1636.44-115.273 1636.58-115.273 1636.58-111.857 1636.68-108.407 1636.75-104.992 1636.88-99.1615 1637.13-94.3316 1637.4-89.7777 1637.78-84.3958 1638.23-79.531 1638.84-74.9083 1639.6-71.5619 1640.15-68.3188 1640.8-65.2484 1641.56-60.3149 1642.76-55.5886 1644.2-51.2418 1645.92-38.5804 1650.87-27.7818 1658.16-18.2599 1668.12L-64.2133 1856.23-116.204 2069.09C-147.875 1999.36-168.643 1929.19-178.062 1860.46-188.446 1784.51-185.238 1707.88-168.575 1632.55M-171.197 1628.5C-207.318 1787.92-181.132 1938.5-115.204 2079.5-81.7046 1942.32-48.1023 1804.72-14.4996 1667.09-25.4362 1655.27-37.3728 1647.64-50.0342 1642.69-54.7606 1640.84-59.5905 1639.36-64.4896 1638.19-67.7668 1637.4-71.0443 1636.75-74.3907 1636.2-79.3931 1635.37-84.4302 1634.79-89.5361 1634.34-94.642 1633.9-99.7479 1633.62-104.888 1633.45-108.304 1633.31-111.754 1633.21-115.204 1633.14-116.929 1633.1-118.654 1633.04-120.378 1633-123.828 1632.93-127.278 1632.83-130.694 1632.73-144.425 1632.28-158.087 1631.39-171.231 1628.53L-171.231 1628.53Z" stroke="#582562" stroke-width="3.4375" stroke-miterlimit="8" fill="#582562" fill-rule="evenodd"/><path d="M-14.9071 1664.47C-24.8541 1654.05-36.1043 1646.43-49.2753 1641.23-53.8712 1639.43-58.7761 1637.88-63.8866 1636.64-67.0422 1635.88-70.3695 1635.19-73.8336 1634.61-78.5326 1633.81-83.4717 1633.19-89.0284 1632.75-93.6243 1632.37-98.495 1632.06-104.394 1631.85-107.824 1631.71-111.254 1631.61-114.684 1631.54L-119.761 1631.4C-123.225 1631.3-126.655 1631.23-130.085 1631.13-142.432 1630.71-155.603 1629.95-168.5 1627.26-155.741 1544.1-129.193 1481.49-85.0496 1430.5L89.5002 1488.63-14.9417 1664.5Z" stroke="#582562" stroke-width="3.4375" stroke-miterlimit="8" fill="#582562" fill-rule="evenodd"/><path d="M-84.4597 1432.52 87.2774 1489.42-15.1188 1660.93C-24.8773 1651.18-35.8386 1644-48.5867 1638.98-53.2255 1637.16-58.2421 1635.58-63.4307 1634.31-66.6262 1633.52-70.028 1632.83-73.5327 1632.25-78.309 1631.45-83.3255 1630.84-88.8922 1630.36-93.5311 1629.98-98.4448 1629.67-104.355 1629.43-107.791 1629.29-111.227 1629.19-114.663 1629.12L-118.512 1629.02-119.783 1629.02C-123.219 1628.91-126.621 1628.81-130.022 1628.71-141.808 1628.33-154.316 1627.61-166.617 1625.24-153.869 1543.98-127.686 1482.58-84.3908 1432.52M-85.4904 1428.53C-135.623 1485.71-159.333 1554.18-170.5 1627.95-157.408 1630.8-143.836 1631.7-130.126 1632.14-126.689 1632.25-123.288 1632.35-119.852 1632.42-118.134 1632.45-116.415 1632.49-114.698 1632.55-111.261 1632.66-107.86 1632.73-104.423 1632.86-99.3037 1633.07-94.184 1633.34-89.1328 1633.76-84.0474 1634.2-79.0305 1634.79-74.0482 1635.61-70.7495 1636.16-67.4509 1636.81-64.1865 1637.61-59.3074 1638.77-54.4968 1640.25-49.7894 1642.11-37.2131 1647.05-25.2896 1654.65-14.3973 1666.5 21.2352 1606.82 56.8676 1547.14 92.5003 1487.46 33.1585 1467.81-26.149 1448.15-85.4904 1428.5L-85.4904 1428.5Z" stroke="#582562" stroke-width="3.4375" stroke-miterlimit="8" fill="#582562" fill-rule="evenodd"/><path d="M248.5 1156.47C343.716 1102 445.99 1075.5 560.793 1075.5 596.181 1075.5 633.393 1078.12 671.5 1083.24L525.405 1140.33 584.27 1087.3 580.656 1086.75C566.266 1084.62 551.499 1083.52 536.696 1083.52 471.532 1083.52 411.222 1104.47 352.873 1124.77 318.897 1136.58 283.888 1148.76 248.5 1156.5Z" stroke="#582562" stroke-width="3.4375" stroke-miterlimit="8" fill="#582562" fill-rule="evenodd"/><path d="M560.197 1076.96C593.398 1076.96 628.215 1079.28 663.89 1083.85L617.079 1102.26 533.045 1135.34 558.788 1112.02 582.125 1090.84 587.521 1085.92 580.303 1084.85C565.869 1082.67 551.021 1081.56 536.173 1081.56 470.837 1081.56 410.45 1102.71 352.091 1123.13 321.983 1133.65 291.085 1144.48 259.843 1152.19 351.678 1101.57 450.181 1076.93 560.232 1076.93M560.197 1073.5C445.644 1073.5 339.134 1100.32 238.5 1160.5 337.862 1141.22 429.628 1085.02 536.173 1085.02 550.437 1085.02 564.941 1086.03 579.788 1088.28 556.52 1109.39 536.62 1127.45 516.72 1145.48 567.965 1125.31 619.21 1105.13 677.5 1082.19 637.46 1076.48 598.382 1073.5 560.197 1073.5L560.197 1073.5Z" stroke="#582562" stroke-width="3.4375" stroke-miterlimit="8" fill="#582562" fill-rule="evenodd"/><path d="M-5.49904 1342.5C-5.49904 1342.5-6.13612 1343.17-6.50003 1343.5" stroke="#582562" stroke-width="3.4375" stroke-miterlimit="8" fill="#582562" fill-rule="evenodd"/><path d="M-5.5 1342.5C41.8334 1302.84 89.1669 1263.19 136.5 1223.5" stroke="#582562" stroke-width="3.4375" stroke-miterlimit="8" fill="#582562" fill-rule="evenodd"/><path d="M144.5 1221.5 234.5 1164.5C215.087 1196.1 185.521 1214.84 144.5 1221.5Z" stroke="#582562" stroke-width="3.4375" stroke-miterlimit="8" fill="#582562" fill-rule="evenodd"/><path d="M228.602 1170.3C211 1194.83 186.006 1210.33 152.899 1217.33L228.602 1170.3M239.5 1159.5C205.155 1180.83 170.81 1202.17 136.5 1223.5 180.883 1218.25 217.051 1199.87 239.5 1159.5L239.5 1159.5Z" stroke="#582562" stroke-width="3.4375" stroke-miterlimit="8" fill="#582562" fill-rule="evenodd"/><path d="M-70.5 1413.5C-52.8334 1394.16-35.1666 1374.84-17.4997 1355.5" stroke="#582562" stroke-width="3.4375" stroke-miterlimit="8" fill="#582562" fill-rule="evenodd"/><path d="M-5.5 1342.5C-9.15497 1347.17-12.8103 1351.83-16.5 1356.5" stroke="#582562" stroke-width="3.4375" stroke-miterlimit="8" fill="#582562" fill-rule="evenodd"/><path d="M-5.5 1343.5C-5.5 1343.5-5.5 1343-4.50033 1342.5" stroke="#582562" stroke-width="3.4375" stroke-miterlimit="8" fill="#582562" fill-rule="evenodd"/></g></svg>