<?xml version="1.0" encoding="UTF-8"?>
<svg id="Capa_2" data-name="Capa 2" xmlns="http://www.w3.org/2000/svg" viewBox="0 0 750.84 407.72">
  <defs>
    <style>
      .cls-1 {
        stroke: #66337c;
        stroke-miterlimit: 10;
      }

      .cls-1, .cls-2 {
        fill: #66337c;
      }
    </style>
  </defs>
  <g id="Capa_1-2" data-name="Capa 1">
    <g>
      <g>
        <path class="cls-2" d="m349.27,162.94c1.48.13,2.94.3,4.39.54-1.45-.24-2.91-.41-4.39-.54Z"/>
        <path class="cls-2" d="m349.27,162.94c1.48.13,2.94.3,4.39.54-1.45-.24-2.91-.41-4.39-.54h0Z"/>
      </g>
      <g>
        <path class="cls-2" d="m337.34,162.46c1,.03,1.99.06,2.99.08-1-.02-2-.05-2.99-.08Z"/>
        <path class="cls-2" d="m337.34,162.46c1,.03,1.99.06,2.99.08-1-.02-2-.05-2.99-.08h0Z"/>
      </g>
      <g>
        <path class="cls-2" d="m353.66,163.48c.96.16,1.92.35,2.87.58-.95-.23-1.9-.42-2.87-.58Z"/>
        <path class="cls-2" d="m353.66,163.48c.96.16,1.92.35,2.87.58-.95-.23-1.9-.42-2.87-.58h0Z"/>
      </g>
      <g>
        <path class="cls-2" d="m341.83,162.58c1,.03,2,.05,2.99.09-.99-.04-1.99-.07-2.99-.09Z"/>
        <path class="cls-2" d="m341.83,162.58s.02,0,.02,0c0,0-.02,0-.02,0h0Zm.02,0c.99.03,1.98.05,2.97.09-.99-.04-1.98-.07-2.97-.09h0Z"/>
      </g>
      <g>
        <path class="cls-2" d="m483.68,407.22c-20.75,0-41.92-7.03-62.94-20.89,46.18-44.11,96.14-70.75,157.18-83.81l1.57-.34-1.49-.61c-14.13-5.84-27.7-8.68-41.46-8.68-9.66,0-19.23,1.4-29.26,4.27-21.02,6.02-41.16,16.32-60.64,26.28l-2.06,1.05c-13.61,6.96-26.61,14.82-40.38,23.15-5.8,3.51-11.78,7.13-17.91,10.73,8.18-40.41,36-75.25,80.52-100.81,43.19-24.79,99.18-38.45,157.65-38.45,42.19,0,83.8,6.85,123.73,20.36-69.76,3.9-106.58,46.59-142.2,87.88-21.83,25.3-42.44,49.2-70.13,65.04-17.18,9.83-34.74,14.81-52.19,14.81h0Z"/>
        <path class="cls-2" d="m624.48,219.62c41.28,0,82.01,6.57,121.14,19.53-68.32,4.8-104.74,47.03-139.99,87.9-21.8,25.27-42.38,49.14-70,64.93-17.1,9.78-34.58,14.74-51.95,14.74-20.47,0-41.37-6.88-62.14-20.46,22.63-21.54,45.89-38.64,71.08-52.24,26.3-14.2,54.24-24.34,85.41-31.01l3.15-.67-2.97-1.23c-14.19-5.87-27.82-8.72-41.65-8.72-9.7,0-19.32,1.4-29.4,4.29-21.07,6.04-41.24,16.35-60.74,26.32l-2.05,1.05c-13.63,6.97-26.64,14.83-40.41,23.16-5.49,3.32-11.15,6.74-16.93,10.16,4.19-19.74,13.22-38.3,26.87-55.21,13.61-16.86,31.51-31.72,53.18-44.16,43.12-24.75,99.01-38.38,157.4-38.38m0-1c-118.97,0-222.46,55.79-238.88,140.75,20.83-12.22,39.5-24.35,59.22-34.43,20.27-10.36,40.89-21.08,62.61-27.3,9.36-2.68,19.01-4.25,29.12-4.25,12.91,0,26.55,2.56,41.27,8.64-62.81,13.44-113.02,41.39-157.88,84.37,21.12,14.04,42.4,21.32,63.74,21.32,17.45,0,34.95-4.87,52.45-14.88,74.86-42.83,101.48-148.28,214.71-152.99-41.98-14.53-85.11-21.24-126.36-21.24h0Z"/>
      </g>
      <g>
        <path class="cls-2" d="m256.41,406.96c-34.82,0-67.03-19.57-98.48-59.82-45.53-58.28-87.58-97.05-155.71-109.78,44.79-12.54,92.43-23.99,138.15-23.99,42.12,0,79.02,9.76,112.8,29.83,38.04,22.6,72.54,58.27,105.46,109.02-18.38-6.97-35.74-16.03-52.55-24.81-32.71-17.08-63.61-33.21-99.04-33.21-13.97,0-27.58,2.48-41.61,7.59l-1.67.61,1.75.35c61.99,12.45,111.77,38.81,156.62,82.93-23.28,14.31-44.78,21.27-65.71,21.27h0Z"/>
        <path class="cls-2" d="m140.37,212.87v1c42.03,0,78.84,9.74,112.54,29.76,37.64,22.37,71.84,57.58,104.46,107.57-17.82-6.88-34.7-15.69-51.06-24.23-32.77-17.11-63.72-33.27-99.27-33.27h0c-14.03,0-27.7,2.49-41.78,7.62l-3.35,1.22,3.49.7c31.57,6.34,59.69,16.28,85.97,30.37,25.15,13.49,48.04,30.5,69.94,51.98-22.99,14.04-44.23,20.87-64.91,20.87-34.66,0-66.74-19.5-98.08-59.63-45.14-57.77-86.87-96.41-153.92-109.56,44.16-12.3,91-23.4,135.97-23.4v-1m0,0c-44.67,0-91.27,10.79-140.37,24.59,73.3,13,116.7,57.71,157.54,109.98,31.74,40.62,64.3,60.01,98.87,60.01,21.32,0,43.4-7.37,66.52-21.68-43.43-42.87-93.68-70.73-157.32-83.51,14.58-5.3,28.3-7.56,41.44-7.56,54.23,0,98.59,38.34,152.83,58.52-69.26-107.4-141.43-140.35-219.5-140.35h0Z"/>
      </g>
      <g>
        <path class="cls-2" d="m373.63,78.09s0,0,0,0c13.8-11.54,27.6-23.08,41.4-34.63-13.8,11.54-27.6,23.08-41.4,34.63Z"/>
        <path class="cls-2" d="m415.03,43.47c-5.38,4.5-10.76,9-16.14,13.5,5.38-4.5,10.76-9,16.14-13.5h0Zm-16.14,13.5c-8.42,7.04-16.84,14.08-25.26,21.12,0,0,0,0,0,0,8.42-7.04,16.84-14.08,25.26-21.12h0Z"/>
      </g>
      <g>
        <path class="cls-2" d="m479.06,139.67c-1.76-.54-3.63-1.14-5.69-1.84-2.95-1-5.95-2.07-8.84-3.1-12.74-4.56-25.92-9.27-39.8-9.27-4.24,0-8.44.45-12.51,1.32l1.35-14.93-11.53,7.95-50.78-16.83,3.8-3.73,15.08-16.59s.02.02.02.02l.4.31.3-.4c1.05-1.38,2.09-2.77,3.13-4.16l41.05-34.34c14.08-1.69,23.92-7.75,30.05-18.52,11.29-2.2,22.44-6.07,33.22-9.82,16.87-5.87,34.31-11.93,53.07-11.93,3.88,0,7.77.26,11.56.78l-17.56,15.82c-27.97,24.19-34.14,57.36-40.11,89.44-1.83,9.85-3.73,20.04-6.23,29.81Z"/>
        <path class="cls-2" d="m531.39,4.33h0c3.5,0,6.99.21,10.42.64l-3.94,3.55-12.8,11.53c-28.11,24.32-34.3,57.57-40.28,89.73-1.8,9.67-3.66,19.67-6.09,29.27-1.61-.5-3.31-1.05-5.17-1.68-2.95-1-5.94-2.07-8.83-3.1-12.78-4.57-26-9.3-39.97-9.3-4.04,0-8.06.4-11.95,1.2l1.19-13.19.19-2.13-1.76,1.21-10.44,7.2-47.04-15.59-2.73-.91,3.22-3.16.02-.02.02-.02,14.25-15.67.49-.54.46.36.62-.82c1.03-1.37,2.06-2.74,3.09-4.11l38.55-32.24,2.34-1.96c14.09-1.72,23.96-7.8,30.17-18.55,11.25-2.21,22.34-6.07,33.06-9.8,16.83-5.85,34.23-11.9,52.9-11.9m0-1c-31,0-57.7,16.24-86.61,21.81,0,0,0-.02.02-.04-6.54,11.67-17.03,17-29.89,18.52,0,0,.11-.15.11-.15-13.8,11.54-27.6,23.08-41.4,34.63-1.05,1.4-2.1,2.8-3.16,4.2,0,0-.33-.37-.33-.37-5.14,5.66-10.28,11.31-15.42,16.97-1.46,1.44-2.93,2.87-4.39,4.3,17.27,5.72,34.53,11.44,51.8,17.16,3.25-2.24,6.51-4.49,10.85-7.49-.53,5.85-.92,10.2-1.32,14.55,0,0,0,0,0,0,0,0,0,0,0,0,4.45-1.02,8.8-1.46,13.06-1.46,16.94,0,32.56,6.97,48.48,12.35,2.06.7,4.13,1.37,6.2,1.99,10.76-41.65,9.73-87.86,46.31-119.5,5.79-5.22,11.58-10.44,18.35-16.53-4.32-.65-8.54-.94-12.69-.94h0Zm-86.51,21.63h0Zm0,0s-.05.08-.08.13c.03-.05.05-.09.08-.13h0Z"/>
      </g>
      <g>
        <path class="cls-2" d="m373.52,78.18s.07-.06.11-.09c0,0,0-.01.01-.02,0,0-.12.11-.12.11Z"/>
        <path class="cls-2" d="m373.64,78.08s-.12.11-.12.11c.04-.03.07-.06.11-.09,0,0,0-.01.01-.02h0Z"/>
      </g>
      <g>
        <path class="cls-2" d="m392.48,303.23c-12.72-46.61-4.44-86.71,6.5-123.11l68.53,11.39c-11.82,49.46-29.18,87.41-75.03,111.72Z"/>
        <path class="cls-2" d="m399.33,180.68l47.83,7.95,19.74,3.28c-4.42,18.44-11.09,41.97-23.41,62.59-12.31,20.61-28.91,36.32-50.7,47.99-12.41-46.05-4.27-85.75,6.53-121.81m-.7-1.13c-11.87,39.41-19.02,79.02-6.47,124.41,48.72-25.59,65.13-67.31,75.96-112.86-23.16-3.85-46.33-7.7-69.49-11.55h0Z"/>
      </g>
      <g>
        <path class="cls-2" d="m399.24,179.15l12.84-51.31c4.16-.93,8.3-1.38,12.65-1.38,13.71,0,26.8,4.69,39.47,9.22,2.9,1.04,5.9,2.11,8.86,3.11,2.09.71,3.99,1.32,5.77,1.86l-11.1,49.88-68.49-11.38Z"/>
        <path class="cls-2" d="m424.73,126.96c13.62,0,26.68,4.67,39.3,9.19,2.9,1.04,5.9,2.11,8.86,3.11,1.92.65,3.68,1.22,5.35,1.73l-10.89,48.97-13.99-2.33-53.5-8.89,5.11-20.41,7.52-30.07c4.02-.88,8.03-1.3,12.24-1.3m0-1c-4.26,0-8.61.44-13.06,1.46,0,0,0,0,0,0-4.35,17.37-8.7,34.75-13.04,52.13h0c23.17,3.85,46.33,7.7,69.49,11.55,3.77-16.93,7.53-33.87,11.3-50.8-2.08-.62-4.14-1.3-6.2-1.99-15.92-5.38-31.54-12.35-48.48-12.35h0Z"/>
      </g>
      <g>
        <path class="cls-2" d="m341.67,290.97c-19.88-43.32-25.16-86.76-15.7-129.14,3.83.79,7.71,1.01,11.35,1.13,1,.03,2,.06,3,.08l1.5.04c1,.03,1.99.05,2.98.09,1.7.07,3.11.15,4.43.26,1.58.14,3.01.31,4.35.53.99.17,1.94.36,2.83.58,1.45.35,2.84.79,4.13,1.29,3.82,1.5,7.07,3.72,9.93,6.78l-28.79,118.35Z"/>
        <path class="cls-2" d="m326.35,162.42c3.71.72,7.44.93,10.95,1.05,1,.03,2,.06,3,.08h.35s1.15.04,1.15.04c.99.03,1.99.05,2.98.09,1.69.07,3.09.15,4.41.26,1.56.13,2.97.31,4.31.53.97.16,1.91.35,2.8.57,1.43.35,2.8.77,4.06,1.27,3.67,1.44,6.8,3.56,9.56,6.46l-13.32,54.74-15.07,61.94c-9.18-20.29-15.2-40.71-17.93-60.71-3.01-22.1-2.08-44.4,2.75-66.32m-.76-1.18c-10.47,46.39-2.88,90.21,16.23,131.24,9.71-39.92,19.45-79.96,29.19-120.01-3.17-3.44-6.63-5.66-10.3-7.1-1.37-.54-2.77-.97-4.19-1.31-.95-.23-1.9-.42-2.87-.58-1.45-.24-2.91-.41-4.39-.54-1.48-.13-2.96-.21-4.45-.26-.99-.04-1.99-.07-2.99-.09-.5-.01-1-.03-1.5-.04-1-.02-2-.05-2.99-.08-3.98-.13-7.94-.39-11.75-1.22h0Z"/>
      </g>
      <g>
        <path class="cls-2" d="m370.93,171.65c-2.9-3.02-6.18-5.23-10.02-6.74-1.34-.52-2.77-.97-4.26-1.33-.92-.22-1.89-.42-2.9-.59-1.37-.23-2.81-.41-4.43-.54-1.34-.11-2.76-.2-4.48-.26-1-.04-2-.07-3-.09l-1.48-.04c-1.01-.03-2.01-.05-3.01-.08-3.6-.12-7.44-.34-11.2-1.12,3.72-24.12,11.46-42.28,24.33-57.07l50.89,16.86-30.45,51.01Z"/>
        <path class="cls-2" d="m350.65,104.36l49.98,16.56-29.8,49.92c-2.84-2.84-6.03-4.93-9.74-6.39-1.35-.53-2.81-.99-4.32-1.36-.93-.23-1.92-.43-2.94-.6-1.39-.23-2.85-.41-4.47-.55-1.35-.11-2.78-.2-4.5-.27-1-.04-2-.07-3-.09l-1.12-.03h-.37c-1-.03-1.99-.06-2.98-.09-3.43-.11-7.07-.32-10.65-1.01,3.71-23.65,11.33-41.52,23.93-56.09m-.32-1.16c-14.59,16.64-21.49,36.57-24.74,58.04,3.81.83,7.76,1.09,11.75,1.22,1,.03,1.99.06,2.99.08.5.01,1,.02,1.5.04,1,.03,1.99.05,2.99.09,1.49.06,2.98.14,4.45.26,1.48.13,2.94.3,4.39.54.96.16,1.92.35,2.87.58,1.42.34,2.82.77,4.19,1.31,3.66,1.44,7.13,3.65,10.3,7.1,10.37-17.37,20.74-34.74,31.11-52.11-17.27-5.72-34.53-11.44-51.8-17.16h0Z"/>
      </g>
      <g>
        <path class="cls-2" d="m447.67,24.03c27.66-15.83,57.37-23.53,90.72-23.53,10.28,0,21.09.76,32.16,2.25l-42.44,16.59,17.1-15.41-1.05-.16c-4.18-.62-8.47-.94-12.77-.94-18.93,0-36.45,6.09-53.4,11.99-9.87,3.43-20.04,6.97-30.32,9.22Z"/>
        <path class="cls-2" d="m538.38,1c9.66,0,19.79.67,30.17,1.99l-13.62,5.32-24.45,9.56,7.49-6.74,6.79-6.12,1.57-1.42-2.1-.31c-4.2-.63-8.52-.95-12.84-.95-19.01,0-36.58,6.11-53.56,12.01-8.76,3.04-17.75,6.17-26.84,8.4,26.72-14.63,55.38-21.75,87.4-21.75M538.38,0c-33.33,0-64.32,7.75-93.6,25.14,28.91-5.57,55.61-21.81,86.61-21.81,4.15,0,8.37.29,12.69.94-6.77,6.1-12.56,11.32-18.35,16.53,14.91-5.83,29.82-11.66,46.78-18.29C560.86.86,549.49,0,538.38,0h0Z"/>
      </g>
      <path class="cls-1" d="m373.63,78.09s-.07.06-.11.09"/>
      <path class="cls-1" d="m373.63,78.09c13.8-11.54,27.6-23.08,41.4-34.63"/>
      <g>
        <path class="cls-2" d="m417.17,42.8l26.24-16.34c-5.66,9.06-14.28,14.43-26.24,16.34Z"/>
        <path class="cls-2" d="m441.71,28.11c-5.12,7.15-12.39,11.67-22.02,13.71l22.02-13.71m3.17-3.15c-9.99,6.22-19.98,12.44-29.96,18.66,12.91-1.53,23.43-6.89,29.96-18.66h0Z"/>
      </g>
      <path class="cls-1" d="m354.72,98.89c5.14-5.66,10.28-11.31,15.42-16.97"/>
      <path class="cls-1" d="m373.63,78.09c-1.05,1.4-2.1,2.8-3.16,4.2"/>
      <path class="cls-1" d="m373.63,78.09s0-.01.01-.02"/>
      <path class="cls-1" d="m373.63,78.09s0,0,0,0"/>
    </g>
  </g>
</svg>