<?xml version="1.0" standalone="no"?>
<!DOCTYPE svg PUBLIC "-//W3C//DTD SVG 20010904//EN"
 "http://www.w3.org/TR/2001/REC-SVG-20010904/DTD/svg10.dtd">
<svg version="1.0" xmlns="http://www.w3.org/2000/svg"
 width="48px" height="48px" viewBox="0 0 512.000000 512.000000"
 preserveAspectRatio="xMidYMid meet">

<g transform="translate(0.000000,512.000000) scale(0.100000,-0.100000)"
fill="#f2f2f2" stroke="none">
<path d="M2997 4778 c-15 -15 -124 -303 -321 -843 -165 -451 -312 -847 -329
-880 -21 -43 -67 -98 -156 -190 -174 -179 -289 -335 -436 -590 -74 -129 -231
-444 -331 -665 -73 -162 -83 -180 -144 -240 -109 -108 -326 -254 -668 -450
-175 -99 -203 -125 -228 -207 -34 -112 20 -214 145 -277 61 -31 236 -82 336
-98 118 -18 371 -15 478 5 298 59 577 217 833 472 60 60 143 151 184 200 105
128 272 290 376 363 175 125 332 184 534 202 255 23 336 48 489 151 132 88
214 176 266 284 88 182 131 361 122 510 -8 152 -60 245 -178 320 -130 84 -170
150 -177 290 -4 99 15 180 64 256 14 22 227 319 475 660 247 341 455 631 461
643 23 52 -43 120 -98 101 -36 -13 -949 -1264 -1000 -1370 -45 -95 -64 -174
-64 -270 0 -193 74 -328 240 -438 51 -33 71 -54 93 -97 28 -53 29 -59 24 -160
-5 -121 -33 -221 -103 -367 -40 -84 -52 -99 -127 -163 -92 -79 -226 -153 -309
-169 -29 -5 -107 -15 -174 -20 -388 -34 -676 -203 -1012 -596 -283 -331 -521
-511 -800 -605 -272 -91 -587 -76 -864 42 -57 24 -79 64 -56 100 9 13 92 67
185 120 193 110 291 171 447 277 117 80 265 214 300 271 12 19 60 116 105 215
125 268 291 595 368 723 110 181 199 296 355 458 126 132 152 164 187 236 41
84 641 1717 641 1745 0 24 -56 73 -85 73 -14 0 -36 -10 -48 -22z"/>
<path d="M583 4370 c-34 -14 -43 -42 -43 -129 l0 -81 -44 0 c-59 0 -74 -7 -92
-41 -31 -60 15 -119 92 -119 l44 0 0 -79 c0 -99 20 -131 80 -131 60 0 80 32
80 130 l0 77 52 5 c60 6 88 32 88 82 0 48 -35 76 -93 76 l-47 0 0 75 c0 84
-12 118 -47 134 -28 13 -40 13 -70 1z"/>
<path d="M1675 4309 c-37 -21 -55 -53 -55 -97 0 -110 143 -145 195 -47 22 40
14 93 -19 124 -28 26 -92 37 -121 20z"/>
<path d="M1621 3654 c-17 -22 -21 -41 -21 -105 l0 -79 -44 0 c-61 0 -96 -29
-96 -79 0 -53 32 -81 93 -81 l47 0 0 -75 c0 -87 12 -119 51 -136 23 -9 36 -9
59 1 43 18 50 37 50 129 l0 81 48 0 c53 1 77 14 91 53 22 57 -24 107 -96 107
l-43 0 0 79 c0 99 -20 131 -80 131 -30 0 -43 -6 -59 -26z"/>
<path d="M750 3291 c-38 -37 -45 -70 -26 -114 32 -79 136 -88 184 -17 69 102
-72 218 -158 131z"/>
<path d="M717 2750 c-24 -19 -26 -28 -29 -108 l-3 -87 -52 -3 c-42 -2 -56 -8
-73 -29 -50 -64 -3 -133 89 -133 l41 0 0 -83 c0 -74 3 -86 23 -105 26 -25 73
-28 99 -8 26 19 38 61 38 132 l0 64 35 0 c42 0 90 22 99 45 24 64 -14 115 -86
115 l-46 0 -3 86 c-4 79 -6 87 -32 110 -34 29 -66 31 -100 4z"/>
<path d="M2375 2395 c-22 -21 -25 -33 -25 -103 l0 -79 -51 -5 c-54 -6 -86 -28
-89 -63 -7 -67 20 -95 90 -95 l50 0 0 -75 c0 -84 12 -118 47 -134 37 -17 62
-13 88 14 23 22 25 32 25 110 l0 85 49 0 c58 0 88 21 97 67 5 27 1 37 -24 63
-25 25 -39 30 -76 30 l-46 0 0 79 c0 64 -4 83 -21 105 -28 35 -80 36 -114 1z"/>
<path d="M453 1680 c-88 -54 -43 -192 63 -192 42 0 90 39 99 82 9 40 -18 96
-54 114 -40 21 -69 20 -108 -4z"/>
</g>
</svg>
